<svg xmlns="http://www.w3.org/2000/svg" viewBox="0 0 960 560" role="img" aria-labelledby="title desc">
  <title id="title">Relayroom protocol map</title>
  <desc id="desc">Codex, Claude Code, and Cursor connect through adapter files to one Relayroom handoff.</desc>
  <defs>
    <filter id="shadow" x="-20%" y="-20%" width="140%" height="140%">
      <feDropShadow dx="0" dy="20" stdDeviation="18" flood-color="#000" flood-opacity="0.38"/>
    </filter>
  </defs>
  <rect width="960" height="560" fill="#111"/>
  <path d="M0 80h960M0 160h960M0 240h960M0 320h960M0 400h960M0 480h960M120 0v560M240 0v560M360 0v560M480 0v560M600 0v560M720 0v560M840 0v560" stroke="#2a2927" stroke-width="1"/>
  <g filter="url(#shadow)">
    <rect x="346" y="160" width="268" height="210" fill="#f4f0e6"/>
    <rect x="370" y="188" width="220" height="16" fill="#0d0d0d"/>
    <rect x="370" y="224" width="168" height="12" fill="#ff4d3d"/>
    <rect x="370" y="258" width="192" height="12" fill="#68a8ff"/>
    <rect x="370" y="292" width="132" height="12" fill="#ffd15c"/>
    <text x="480" y="342" fill="#0d0d0d" font-family="ui-monospace, SFMono-Regular, Consolas, monospace" font-size="24" font-weight="800" text-anchor="middle">.relayroom/HANDOFF.md</text>
  </g>
  <g fill="none" stroke-width="4">
    <path d="M238 168 C292 168 292 214 346 214" stroke="#68a8ff"/>
    <path d="M238 280 C292 280 292 268 346 268" stroke="#ffd15c"/>
    <path d="M238 392 C292 392 292 322 346 322" stroke="#ff4d3d"/>
    <path d="M614 214 C674 214 674 168 728 168" stroke="#68a8ff"/>
    <path d="M614 268 C674 268 674 280 728 280" stroke="#ffd15c"/>
    <path d="M614 322 C674 322 674 392 728 392" stroke="#ff4d3d"/>
  </g>
  <g font-family="Inter, system-ui, sans-serif" font-weight="800">
    <rect x="72" y="118" width="166" height="100" fill="#171717" stroke="#4a463f"/>
    <text x="155" y="160" fill="#f4f0e6" font-size="23" text-anchor="middle">Codex</text>
    <text x="155" y="190" fill="#aeb8c2" font-size="14" text-anchor="middle">AGENTS.md</text>
    <rect x="72" y="230" width="166" height="100" fill="#171717" stroke="#4a463f"/>
    <text x="155" y="272" fill="#f4f0e6" font-size="23" text-anchor="middle">Claude</text>
    <text x="155" y="302" fill="#aeb8c2" font-size="14" text-anchor="middle">CLAUDE.md</text>
    <rect x="72" y="342" width="166" height="100" fill="#171717" stroke="#4a463f"/>
    <text x="155" y="384" fill="#f4f0e6" font-size="23" text-anchor="middle">Cursor</text>
    <text x="155" y="414" fill="#aeb8c2" font-size="14" text-anchor="middle">rules.mdc</text>
    <rect x="728" y="118" width="166" height="100" fill="#171717" stroke="#4a463f"/>
    <text x="811" y="160" fill="#f4f0e6" font-size="21" text-anchor="middle">capture</text>
    <text x="811" y="190" fill="#aeb8c2" font-size="14" text-anchor="middle">task + git state</text>
    <rect x="728" y="230" width="166" height="100" fill="#171717" stroke="#4a463f"/>
    <text x="811" y="272" fill="#f4f0e6" font-size="21" text-anchor="middle">note</text>
    <text x="811" y="302" fill="#aeb8c2" font-size="14" text-anchor="middle">durable memory</text>
    <rect x="728" y="342" width="166" height="100" fill="#171717" stroke="#4a463f"/>
    <text x="811" y="384" fill="#f4f0e6" font-size="21" text-anchor="middle">resume</text>
    <text x="811" y="414" fill="#aeb8c2" font-size="14" text-anchor="middle">agent prompt</text>
  </g>
</svg>
